# xmcd
#
# Track frame offsets: 
#        150
#        17734
#        32391
#        51740
#        67079
#        78215
#        85451
#        96581
#        110694
#        121681
#        134229
#        145291
#        160811
#        180435
#        204815
#        221528
#        245289
#        263431
#        279935
#        298382
#
# Disc length: 4202 seconds
#
# Revision: 1
# Processed by: cddbd v1.5.2PL0 Copyright (c) Steve Scherf et al.
# Submitted via: ExactAudioCopy v1.0b3
#
DISCID=28106814
DTITLE=Various Artist - 20 Шедевров Цыганской Песни
DYEAR=2000
DGENRE=Folk
TTITLE0=Женя Шевченко - Очи черные
TTITLE1=Николай Эрденко - И льется песня
TTITLE2=Алеша Димитриевич - Две гитары по-петербугски
TTITLE3=Женя Шевченко - Дорогой длинною
TTITLE4=Николай Эрденко - Ай да ну да, да не
TTITLE5=Алеша Димитриевич - Звездочка
TTITLE6=Женя Шевченко - Эх, раз пошел
TTITLE7=Николай Эрденко - Эй, ямщик, гони-ка к Яру
TTITLE8=Алеша Димитриевич - Любовь прекрасная
TTITLE9=Женя Шевченко - Хочу любить, хочу страдать
TTITLE10=Николай Эрденко - Ручеек
TTITLE11=Женя Шевченко - Там бубна звон
TTITLE12=Алеша Димитриевич - Песня питерских цыган
TTITLE13=Николай Эрденко - Мороз
TTITLE14=Женя Шевченко - Лунный свет
TTITLE15=Алеша Димитриевич - Эх раз, еще раз
TTITLE16=Николай Эрденко - Солнышко
TTITLE17=Женя Шевченко - Ямщик, не гони лошадей
TTITLE18=Николай Эрденко - Прощай, мой табор
TTITLE19=Алеша Димитриевич - Попурри на цыганские темы
EXTD=
EXTT0=
EXTT1=
EXTT2=
EXTT3=
EXTT4=
EXTT5=
EXTT6=
EXTT7=
EXTT8=
EXTT9=
EXTT10=
EXTT11=
EXTT12=
EXTT13=
EXTT14=
EXTT15=
EXTT16=
EXTT17=
EXTT18=
EXTT19=
PLAYORDER=
